<mxfile host="Electron" modified="2022-10-30T21:35:34.853Z" agent="5.0 (Macintosh; Intel Mac OS X 10_15_7) AppleWebKit/537.36 (KHTML, like Gecko) draw.io/20.3.0 Chrome/104.0.5112.114 Electron/20.1.3 Safari/537.36" etag="2WfEYem9R1AD4XVgB0ny" compressed="false" version="20.3.0" type="device">
  <diagram id="dO-_XZeYvvwRO0bRooas" name="Page-2">
    <mxGraphModel dx="946" dy="599" grid="1" gridSize="10" guides="1" tooltips="1" connect="1" arrows="1" fold="1" page="1" pageScale="1" pageWidth="1169" pageHeight="827" math="0" shadow="0">
      <root>
        <mxCell id="0" />
        <mxCell id="1" parent="0" />
        <mxCell id="g6C4kvHadcEMI_lS_jMt-1" value="" style="group" parent="1" vertex="1" connectable="0">
          <mxGeometry x="120" y="180" width="140" height="70" as="geometry" />
        </mxCell>
        <mxCell id="g6C4kvHadcEMI_lS_jMt-2" value="" style="html=1;shadow=1;" parent="g6C4kvHadcEMI_lS_jMt-1" vertex="1">
          <mxGeometry width="140" height="70" as="geometry" />
        </mxCell>
        <mxCell id="g6C4kvHadcEMI_lS_jMt-4" value="Custom JSP" style="text;html=1;strokeColor=none;fillColor=none;align=center;verticalAlign=middle;whiteSpace=wrap;rounded=0;shadow=1;" parent="g6C4kvHadcEMI_lS_jMt-1" vertex="1">
          <mxGeometry x="54.44444444444444" y="26.92" width="31.11111111111111" height="16.153846153846153" as="geometry" />
        </mxCell>
        <mxCell id="g6C4kvHadcEMI_lS_jMt-9" value="" style="group" parent="1" vertex="1" connectable="0">
          <mxGeometry x="290" y="180" width="140" height="70" as="geometry" />
        </mxCell>
        <mxCell id="g6C4kvHadcEMI_lS_jMt-10" value="" style="html=1;shadow=1;" parent="g6C4kvHadcEMI_lS_jMt-9" vertex="1">
          <mxGeometry width="140" height="70" as="geometry" />
        </mxCell>
        <mxCell id="g6C4kvHadcEMI_lS_jMt-11" value="Dyn Code" style="text;html=1;strokeColor=none;fillColor=none;align=center;verticalAlign=middle;whiteSpace=wrap;rounded=0;shadow=1;" parent="g6C4kvHadcEMI_lS_jMt-9" vertex="1">
          <mxGeometry x="54.44444444444444" y="26.92" width="31.11111111111111" height="16.153846153846153" as="geometry" />
        </mxCell>
        <mxCell id="g6C4kvHadcEMI_lS_jMt-12" value="" style="group" parent="1" vertex="1" connectable="0">
          <mxGeometry x="460" y="180" width="140" height="70" as="geometry" />
        </mxCell>
        <mxCell id="g6C4kvHadcEMI_lS_jMt-13" value="" style="html=1;shadow=1;" parent="g6C4kvHadcEMI_lS_jMt-12" vertex="1">
          <mxGeometry width="140" height="70" as="geometry" />
        </mxCell>
        <mxCell id="g6C4kvHadcEMI_lS_jMt-14" value="Configuration&lt;br&gt;+JEXL" style="text;html=1;strokeColor=none;fillColor=none;align=center;verticalAlign=middle;whiteSpace=wrap;rounded=0;shadow=1;" parent="g6C4kvHadcEMI_lS_jMt-12" vertex="1">
          <mxGeometry x="54.44444444444444" y="26.92" width="31.11111111111111" height="16.153846153846153" as="geometry" />
        </mxCell>
        <mxCell id="me5h5j0GBDJW33NWCiJi-3" value="" style="group" parent="1" vertex="1" connectable="0">
          <mxGeometry x="140" y="290" width="100" height="30" as="geometry" />
        </mxCell>
        <mxCell id="me5h5j0GBDJW33NWCiJi-1" value="" style="html=1;shadow=1;" parent="me5h5j0GBDJW33NWCiJi-3" vertex="1">
          <mxGeometry width="100" height="30" as="geometry" />
        </mxCell>
        <mxCell id="me5h5j0GBDJW33NWCiJi-2" value="Standard JSP" style="text;html=1;strokeColor=none;fillColor=none;align=center;verticalAlign=middle;whiteSpace=wrap;rounded=0;shadow=1;" parent="me5h5j0GBDJW33NWCiJi-3" vertex="1">
          <mxGeometry x="6" width="90" height="30" as="geometry" />
        </mxCell>
        <mxCell id="me5h5j0GBDJW33NWCiJi-4" value="" style="group" parent="1" vertex="1" connectable="0">
          <mxGeometry x="390" y="290" width="100" height="30" as="geometry" />
        </mxCell>
        <mxCell id="me5h5j0GBDJW33NWCiJi-5" value="" style="html=1;shadow=1;" parent="me5h5j0GBDJW33NWCiJi-4" vertex="1">
          <mxGeometry width="100" height="30" as="geometry" />
        </mxCell>
        <mxCell id="me5h5j0GBDJW33NWCiJi-6" value="Java Code" style="text;html=1;strokeColor=none;fillColor=none;align=center;verticalAlign=middle;whiteSpace=wrap;rounded=0;shadow=1;" parent="me5h5j0GBDJW33NWCiJi-4" vertex="1">
          <mxGeometry x="6" width="90" height="30" as="geometry" />
        </mxCell>
        <mxCell id="me5h5j0GBDJW33NWCiJi-7" value="" style="group" parent="1" vertex="1" connectable="0">
          <mxGeometry x="500" y="290" width="100" height="30" as="geometry" />
        </mxCell>
        <mxCell id="me5h5j0GBDJW33NWCiJi-8" value="" style="html=1;shadow=1;" parent="me5h5j0GBDJW33NWCiJi-7" vertex="1">
          <mxGeometry width="100" height="30" as="geometry" />
        </mxCell>
        <mxCell id="me5h5j0GBDJW33NWCiJi-9" value="Configuration" style="text;html=1;strokeColor=none;fillColor=none;align=center;verticalAlign=middle;whiteSpace=wrap;rounded=0;shadow=1;" parent="me5h5j0GBDJW33NWCiJi-7" vertex="1">
          <mxGeometry x="6" width="90" height="30" as="geometry" />
        </mxCell>
        <mxCell id="me5h5j0GBDJW33NWCiJi-10" style="edgeStyle=none;rounded=0;orthogonalLoop=1;jettySize=auto;html=1;entryX=0.25;entryY=0;entryDx=0;entryDy=0;dashed=1;startArrow=none;startFill=0;exitX=0.921;exitY=1.021;exitDx=0;exitDy=0;exitPerimeter=0;" parent="1" source="g6C4kvHadcEMI_lS_jMt-10" target="me5h5j0GBDJW33NWCiJi-6" edge="1">
          <mxGeometry relative="1" as="geometry" />
        </mxCell>
        <mxCell id="me5h5j0GBDJW33NWCiJi-11" style="edgeStyle=none;rounded=0;orthogonalLoop=1;jettySize=auto;html=1;entryX=0.928;entryY=-0.053;entryDx=0;entryDy=0;dashed=1;startArrow=none;startFill=0;entryPerimeter=0;exitX=0.136;exitY=1.021;exitDx=0;exitDy=0;exitPerimeter=0;" parent="1" source="g6C4kvHadcEMI_lS_jMt-13" target="me5h5j0GBDJW33NWCiJi-6" edge="1">
          <mxGeometry relative="1" as="geometry" />
        </mxCell>
        <mxCell id="me5h5j0GBDJW33NWCiJi-12" style="edgeStyle=none;rounded=0;orthogonalLoop=1;jettySize=auto;html=1;entryX=0.5;entryY=0;entryDx=0;entryDy=0;dashed=1;startArrow=none;startFill=0;exitX=0.641;exitY=1.002;exitDx=0;exitDy=0;exitPerimeter=0;" parent="1" source="g6C4kvHadcEMI_lS_jMt-13" target="me5h5j0GBDJW33NWCiJi-9" edge="1">
          <mxGeometry relative="1" as="geometry" />
        </mxCell>
        <mxCell id="me5h5j0GBDJW33NWCiJi-13" style="edgeStyle=none;rounded=0;orthogonalLoop=1;jettySize=auto;html=1;entryX=0.5;entryY=0;entryDx=0;entryDy=0;dashed=1;startArrow=none;startFill=0;" parent="1" source="g6C4kvHadcEMI_lS_jMt-2" target="me5h5j0GBDJW33NWCiJi-2" edge="1">
          <mxGeometry relative="1" as="geometry" />
        </mxCell>
      </root>
    </mxGraphModel>
  </diagram>
</mxfile>
